<svg xmlns="http://www.w3.org/2000/svg" xmlns:xlink="http://www.w3.org/1999/xlink" version="1.1" width="256" height="256" viewBox="0 0 256 256" xml:space="preserve">
<g style="stroke: none; stroke-width: 0; stroke-dasharray: none; stroke-linecap: butt; stroke-linejoin: miter; stroke-miterlimit: 10; fill: none; fill-rule: nonzero; opacity: 1;" transform="translate(1.4065934065934016 1.4065934065934016) scale(2.81 2.81)">
	<ellipse cx="45.001999999999995" cy="8.474" rx="35.282" ry="8.474" style="stroke: none; stroke-width: 1; stroke-dasharray: none; stroke-linecap: butt; stroke-linejoin: miter; stroke-miterlimit: 10; fill: rgb(162,217,240); fill-rule: nonzero; opacity: 1;" transform=" matrix(1 0 0 1 0 0) "/>
	<path d="M 80.282 8.474 c 0 4.68 -15.796 8.474 -35.282 8.474 S 9.718 13.155 9.718 8.474 v 24.35 c 0 4.68 15.796 8.474 35.282 8.474 s 35.282 -3.794 35.282 -8.474 V 8.474 z" style="stroke: none; stroke-width: 1; stroke-dasharray: none; stroke-linecap: butt; stroke-linejoin: miter; stroke-miterlimit: 10; fill: rgb(50,167,228); fill-rule: nonzero; opacity: 1;" transform=" matrix(1 0 0 1 0 0) " stroke-linecap="round"/>
	<path d="M 80.282 32.825 c 0 4.68 -15.796 8.474 -35.282 8.474 S 9.718 37.505 9.718 32.825 v 24.35 c 0 4.68 15.796 8.474 35.282 8.474 s 35.282 -3.794 35.282 -8.474 V 32.825 z" style="stroke: none; stroke-width: 1; stroke-dasharray: none; stroke-linecap: butt; stroke-linejoin: miter; stroke-miterlimit: 10; fill: rgb(162,217,240); fill-rule: nonzero; opacity: 1;" transform=" matrix(1 0 0 1 0 0) " stroke-linecap="round"/>
	<path d="M 80.282 57.175 c 0 4.68 -15.796 8.474 -35.282 8.474 S 9.718 61.855 9.718 57.175 v 24.35 C 9.718 86.206 25.514 90 45 90 s 35.282 -3.794 35.282 -8.474 V 57.175 z" style="stroke: none; stroke-width: 1; stroke-dasharray: none; stroke-linecap: butt; stroke-linejoin: miter; stroke-miterlimit: 10; fill: rgb(50,167,228); fill-rule: nonzero; opacity: 1;" transform=" matrix(1 0 0 1 0 0) " stroke-linecap="round"/>
	<path d="M 45.937 30.124 h -1.873 c -0.552 0 -1 -0.448 -1 -1 s 0.448 -1 1 -1 h 1.873 c 0.553 0 1 0.448 1 1 S 46.489 30.124 45.937 30.124 z" style="stroke: none; stroke-width: 1; stroke-dasharray: none; stroke-linecap: butt; stroke-linejoin: miter; stroke-miterlimit: 10; fill: rgb(46,140,204); fill-rule: nonzero; opacity: 1;" transform=" matrix(1 0 0 1 0 0) " stroke-linecap="round"/>
	<path d="M 45.937 54.475 h -1.873 c -0.552 0 -1 -0.447 -1 -1 s 0.448 -1 1 -1 h 1.873 c 0.553 0 1 0.447 1 1 S 46.489 54.475 45.937 54.475 z" style="stroke: none; stroke-width: 1; stroke-dasharray: none; stroke-linecap: butt; stroke-linejoin: miter; stroke-miterlimit: 10; fill: rgb(46,140,204); fill-rule: nonzero; opacity: 1;" transform=" matrix(1 0 0 1 0 0) " stroke-linecap="round"/>
	<path d="M 45.937 78.825 h -1.873 c -0.552 0 -1 -0.447 -1 -1 s 0.448 -1 1 -1 h 1.873 c 0.553 0 1 0.447 1 1 S 46.489 78.825 45.937 78.825 z" style="stroke: none; stroke-width: 1; stroke-dasharray: none; stroke-linecap: butt; stroke-linejoin: miter; stroke-miterlimit: 10; fill: rgb(46,140,204); fill-rule: nonzero; opacity: 1;" transform=" matrix(1 0 0 1 0 0) " stroke-linecap="round"/>
</g>
</svg>